<svg width="186" height="186" viewBox="0 0 186 186" fill="none" xmlns="http://www.w3.org/2000/svg">
<circle cx="93" cy="93" r="93" fill="#7E22CE"/>
<path d="M37.1643 93.9375L51.6244 99.7969V103.898L34.5067 95.9674V93.5608L37.1643 93.9375ZM51.6244 89.1244L37.1853 95.0675L34.5067 95.3605V92.933L51.6244 85.0229V89.1244ZM61.6272 89.7104V116.705H57.7349V85.3577H61.2924L61.6272 89.7104ZM76.8825 96.4905V96.93C76.8825 98.5762 76.6872 100.104 76.2966 101.513C75.906 102.908 75.334 104.122 74.5806 105.154C73.8412 106.186 72.9275 106.989 71.8393 107.561C70.7511 108.133 69.5025 108.419 68.0935 108.419C66.6565 108.419 65.387 108.181 64.2849 107.707C63.1828 107.233 62.248 106.542 61.4807 105.635C60.7134 104.729 60.0996 103.64 59.6392 102.371C59.1928 101.101 58.8859 99.6713 58.7185 98.0809V95.7372C58.8859 94.0631 59.1998 92.5633 59.6602 91.238C60.1205 89.9127 60.7274 88.7826 61.4807 87.8479C62.248 86.8993 63.1758 86.1808 64.264 85.6925C65.3521 85.1903 66.6077 84.9392 68.0307 84.9392C69.4537 84.9392 70.7162 85.2182 71.8184 85.7762C72.9205 86.3203 73.8482 87.1016 74.6016 88.12C75.3549 89.1384 75.9199 90.3591 76.2966 91.7821C76.6872 93.1911 76.8825 94.7606 76.8825 96.4905ZM72.9902 96.93V96.4905C72.9902 95.3605 72.8717 94.3002 72.6345 93.3097C72.3973 92.3052 72.0276 91.4263 71.5254 90.673C71.0371 89.9057 70.4093 89.3058 69.642 88.8733C68.8747 88.4269 67.9609 88.2037 66.9007 88.2037C65.9241 88.2037 65.0731 88.3711 64.3477 88.7059C63.6362 89.0407 63.0293 89.4941 62.5271 90.0661C62.0248 90.6242 61.6133 91.2659 61.2924 91.9914C60.9855 92.7028 60.7553 93.4422 60.6018 94.2095V99.6295C60.8809 100.606 61.2715 101.527 61.7737 102.392C62.2759 103.243 62.9456 103.933 63.7826 104.463C64.6197 104.98 65.673 105.238 66.9425 105.238C67.9888 105.238 68.8887 105.021 69.642 104.589C70.4093 104.143 71.0371 103.536 71.5254 102.768C72.0276 102.001 72.3973 101.122 72.6345 100.132C72.8717 99.1272 72.9902 98.06 72.9902 96.93ZM85.6925 75.8571V108H81.8212V75.8571H85.6925ZM84.7718 95.8209L83.1604 95.7581C83.1744 94.2095 83.4046 92.7796 83.851 91.4682C84.2974 90.1429 84.9252 88.9919 85.7344 88.0153C86.5435 87.0388 87.5061 86.2854 88.6222 85.7553C89.7522 85.2112 91.0008 84.9392 92.368 84.9392C93.4841 84.9392 94.4886 85.0926 95.3814 85.3996C96.2743 85.6925 97.0346 86.1669 97.6624 86.8225C98.3041 87.4782 98.7924 88.3292 99.1272 89.3756C99.4621 90.4079 99.6295 91.6705 99.6295 93.1632V108H95.7372V93.1214C95.7372 91.9355 95.5628 90.9869 95.214 90.2754C94.8652 89.5499 94.356 89.0268 93.6864 88.7059C93.0167 88.3711 92.1936 88.2037 91.2171 88.2037C90.2545 88.2037 89.3756 88.406 88.5804 88.8105C87.7991 89.2151 87.1225 89.7732 86.5505 90.4847C85.9925 91.1961 85.553 92.0123 85.2321 92.933C84.9252 93.8398 84.7718 94.8025 84.7718 95.8209ZM129.533 77.5312L116.831 110.616H113.504L126.227 77.5312H129.533ZM148.513 94.7746L133.635 88.978V84.981L151.506 92.8912V95.3396L148.513 94.7746ZM133.635 99.8806L148.555 93.9584L151.506 93.519V95.9464L133.635 103.878V99.8806Z" fill="white"/>
</svg>
